# Blender 3.6.0
# www.blender.org
o Chessboard_Surround
v -24.000000 0.000000 23.999998
v 24.000000 0.000000 23.999998
v -24.000000 0.000000 -23.999998
v 24.000000 0.000000 -23.999998
v -24.000000 -1.000000 -23.999998
v -24.000000 -1.000000 23.999998
v 24.000000 -1.000000 23.999998
v 24.000000 -1.000000 -23.999998
v -31.199999 -3.000000 -31.199997
v -31.199999 -3.000000 31.199997
v 31.199999 -3.000000 31.199997
v 31.199999 -3.000000 -31.199997
v -29.699999 0.000000 -29.699997
v -31.199999 -1.500000 -31.199997
v -29.933876 -0.726459 -29.933874
v -30.473541 -1.266122 -30.473539
v -31.199999 -1.500000 31.199997
v -29.699999 0.000000 29.699997
v -30.473541 -1.266122 30.473539
v -29.933876 -0.726459 29.933874
v 31.199999 -1.500000 31.199997
v 29.699999 0.000000 29.699997
v 30.473541 -1.266122 30.473539
v 29.933876 -0.726459 29.933874
v 31.199999 -1.500000 -31.199997
v 29.699999 0.000000 -29.699997
v 30.473541 -1.266122 -30.473539
v 29.933876 -0.726459 -29.933874
v -24.000000 0.000000 23.999998
v -18.000000 0.000000 23.999998
v -12.000000 0.000000 23.999998
v -24.000000 0.000000 17.999998
v -18.000000 0.000000 17.999998
v -12.000000 0.000000 17.999998
v -24.000000 0.000000 11.999999
v -18.000000 0.000000 11.999999
v -12.000000 0.000000 11.999999
v -24.000000 0.000000 11.999999
v -18.000000 0.000000 11.999999
v -12.000000 0.000000 11.999999
v -24.000000 0.000000 6.000000
v -18.000000 0.000000 6.000000
v -12.000000 0.000000 6.000000
v -24.000000 0.000000 0.000000
v -18.000000 0.000000 0.000000
v -12.000000 0.000000 0.000000
v -24.000000 0.000000 0.000000
v -18.000000 0.000000 0.000000
v -12.000000 0.000000 0.000000
v -24.000000 0.000000 -6.000000
v -18.000000 0.000000 -6.000000
v -12.000000 0.000000 -6.000000
v -24.000000 0.000000 -11.999999
v -18.000000 0.000000 -11.999999
v -12.000000 0.000000 -11.999999
v -24.000000 0.000000 -11.999999
v -18.000000 0.000000 -11.999999
v -12.000000 0.000000 -11.999999
v -24.000000 0.000000 -17.999998
v -18.000000 0.000000 -17.999998
v -12.000000 0.000000 -17.999998
v -24.000000 0.000000 -23.999998
v -18.000000 0.000000 -23.999998
v -12.000000 0.000000 -23.999998
v -12.000000 0.000000 23.999998
v -6.000000 0.000000 23.999998
v 0.000000 0.000000 23.999998
v -12.000000 0.000000 17.999998
v -6.000000 0.000000 17.999998
v 0.000000 0.000000 17.999998
v -12.000000 0.000000 11.999999
v -6.000000 0.000000 11.999999
v 0.000000 0.000000 11.999999
v -12.000000 0.000000 11.999999
v -6.000000 0.000000 11.999999
v 0.000000 0.000000 11.999999
v -12.000000 0.000000 6.000000
v -6.000000 0.000000 6.000000
v 0.000000 0.000000 6.000000
v -12.000000 0.000000 0.000000
v -6.000000 0.000000 0.000000
v 0.000000 0.000000 0.000000
v -12.000000 0.000000 0.000000
v -6.000000 0.000000 0.000000
v 0.000000 0.000000 0.000000
v -12.000000 0.000000 -6.000000
v -6.000000 0.000000 -6.000000
v 0.000000 0.000000 -6.000000
v -12.000000 0.000000 -11.999999
v -6.000000 0.000000 -11.999999
v 0.000000 0.000000 -11.999999
v -12.000000 0.000000 -11.999999
v -6.000000 0.000000 -11.999999
v 0.000000 0.000000 -11.999999
v -12.000000 0.000000 -17.999998
v -6.000000 0.000000 -17.999998
v 0.000000 0.000000 -17.999998
v -12.000000 0.000000 -23.999998
v -6.000000 0.000000 -23.999998
v 0.000000 0.000000 -23.999998
v 0.000000 0.000000 23.999998
v 6.000000 0.000000 23.999998
v 12.000000 0.000000 23.999998
v 0.000000 0.000000 17.999998
v 6.000000 0.000000 17.999998
v 12.000000 0.000000 17.999998
v 0.000000 0.000000 11.999999
v 6.000000 0.000000 11.999999
v 12.000000 0.000000 11.999999
v 0.000000 0.000000 11.999999
v 6.000000 0.000000 11.999999
v 12.000000 0.000000 11.999999
v 0.000000 0.000000 6.000000
v 6.000000 0.000000 6.000000
v 12.000000 0.000000 6.000000
v 0.000000 0.000000 0.000000
v 6.000000 0.000000 0.000000
v 12.000000 0.000000 0.000000
v 0.000000 0.000000 0.000000
v 6.000000 0.000000 0.000000
v 12.000000 0.000000 0.000000
v 0.000000 0.000000 -6.000000
v 6.000000 0.000000 -6.000000
v 12.000000 0.000000 -6.000000
v 0.000000 0.000000 -11.999999
v 6.000000 0.000000 -11.999999
v 12.000000 0.000000 -11.999999
v 0.000000 0.000000 -11.999999
v 6.000000 0.000000 -11.999999
v 12.000000 0.000000 -11.999999
v 0.000000 0.000000 -17.999998
v 6.000000 0.000000 -17.999998
v 12.000000 0.000000 -17.999998
v 0.000000 0.000000 -23.999998
v 6.000000 0.000000 -23.999998
v 12.000000 0.000000 -23.999998
v 12.000000 0.000000 23.999998
v 18.000000 0.000000 23.999998
v 24.000000 0.000000 23.999998
v 12.000000 0.000000 17.999998
v 18.000000 0.000000 17.999998
v 24.000000 0.000000 17.999998
v 12.000000 0.000000 11.999999
v 18.000000 0.000000 11.999999
v 24.000000 0.000000 11.999999
v 12.000000 0.000000 11.999999
v 18.000000 0.000000 11.999999
v 24.000000 0.000000 11.999999
v 12.000000 0.000000 6.000000
v 18.000000 0.000000 6.000000
v 24.000000 0.000000 6.000000
v 12.000000 0.000000 0.000000
v 18.000000 0.000000 0.000000
v 24.000000 0.000000 0.000000
v 12.000000 0.000000 0.000000
v 18.000000 0.000000 0.000000
v 24.000000 0.000000 0.000000
v 12.000000 0.000000 -6.000000
v 18.000000 0.000000 -6.000000
v 24.000000 0.000000 -6.000000
v 12.000000 0.000000 -11.999999
v 18.000000 0.000000 -11.999999
v 24.000000 0.000000 -11.999999
v 12.000000 0.000000 -11.999999
v 18.000000 0.000000 -11.999999
v 24.000000 0.000000 -11.999999
v 12.000000 0.000000 -17.999998
v 18.000000 0.000000 -17.999998
v 24.000000 0.000000 -17.999998
v 12.000000 0.000000 -23.999998
v 18.000000 0.000000 -23.999998
v 24.000000 0.000000 -23.999998
vn 0.3015 0.9045 -0.3015
vn 0.5774 0.5774 -0.5774
vn 0.5774 0.5774 0.5774
vn 0.3015 0.9045 0.3015
vn -0.5774 0.5774 -0.5774
vn -0.5774 0.5774 0.5774
vn 0.6065 0.5142 -0.6065
vn 0.5774 -0.5774 -0.5774
vn -0.5774 -0.5774 -0.5774
vn -0.6065 0.5142 -0.6065
vn -0.5774 -0.5774 0.5774
vn -0.6065 0.5142 0.6065
vn 0.5774 -0.5774 0.5774
vn 0.6065 0.5142 0.6065
vn -0.3015 0.9045 0.3015
vn -0.3015 0.9045 -0.3015
vn 0.4804 0.7337 -0.4804
vn -0.4804 0.7337 -0.4804
vn 0.4804 0.7337 0.4804
vn -0.4804 0.7337 0.4804
vn -0.2273 0.9469 0.2273
vn -0.2273 0.9469 -0.2273
vn -0.5018 0.7045 0.5018
vn -0.5018 0.7045 -0.5018
vn 0.2273 0.9469 0.2273
vn 0.5018 0.7045 0.5018
vn 0.2273 0.9469 -0.2273
vn 0.5018 0.7045 -0.5018
vn -0.0000 1.0000 -0.0000
vt 0.015625 0.962198
vt 0.037802 0.962198
vt 0.037802 0.984375
vt 0.015625 0.984375
vt 0.059980 0.962198
vt 0.059980 0.984375
vt 0.082157 0.962198
vt 0.082157 0.984375
vt 0.104335 0.962198
vt 0.104335 0.984375
vt 0.126512 0.962198
vt 0.126512 0.984375
vt 0.148690 0.962198
vt 0.148690 0.984375
vt 0.170867 0.962198
vt 0.170867 0.984375
vt 0.193045 0.962198
vt 0.193045 0.984375
vt 0.215222 0.962198
vt 0.215222 0.984375
vt 0.237400 0.962198
vt 0.237400 0.984375
vt 0.259577 0.962198
vt 0.259577 0.984375
vt 0.281755 0.962198
vt 0.281755 0.984375
vt 0.303932 0.962198
vt 0.303932 0.984375
vt 0.326109 0.962198
vt 0.326109 0.984375
vt 0.348287 0.962198
vt 0.348287 0.984375
vt 0.370464 0.962198
vt 0.370464 0.984375
vt 0.392642 0.962198
vt 0.392642 0.984375
vt 0.414819 0.962198
vt 0.414819 0.984375
vt 0.436997 0.962198
vt 0.436997 0.984375
vt 0.459174 0.962198
vt 0.459174 0.984375
vt 0.481352 0.962198
vt 0.481352 0.984375
vt 0.340727 0.852823
vt 0.362904 0.852823
vt 0.362904 0.875000
vt 0.340727 0.875000
vt 0.385082 0.852823
vt 0.385082 0.875000
vt 0.407259 0.852823
vt 0.407259 0.875000
vt 0.429437 0.852823
vt 0.429437 0.875000
vt 0.451614 0.852823
vt 0.451614 0.875000
vt 0.325853 0.575853
vt 0.401707 0.575853
vt 0.401707 0.651707
vt 0.325853 0.651707
vt 0.818711 0.568711
vt 0.887422 0.568711
vt 0.887422 0.637422
vt 0.818711 0.637422
vt 0.612578 0.362578
vt 0.543867 0.362578
vt 0.543867 0.293867
vt 0.612578 0.293867
vt 0.098293 0.348293
vt 0.022440 0.348293
vt 0.022440 0.272440
vt 0.098293 0.272440
vt 0.250000 0.424147
vt 0.250000 0.500000
vt 0.174147 0.500000
vt 0.174147 0.424147
vt 0.750000 0.431289
vt 0.750000 0.500000
vt 0.681289 0.500000
vt 0.681289 0.431289
vt 0.543867 0.568711
vt 0.612578 0.568711
vt 0.612578 0.637422
vt 0.543867 0.637422
vt 0.022440 0.575854
vt 0.098293 0.575854
vt 0.098293 0.651707
vt 0.022440 0.651707
vt 0.325853 0.348293
vt 0.325853 0.272440
vt 0.401707 0.272440
vt 0.401707 0.348293
vt 0.818711 0.362578
vt 0.818711 0.293867
vt 0.887422 0.293867
vt 0.887422 0.362578
vt 0.750000 0.362578
vt 0.750000 0.293867
vt 0.250000 0.348293
vt 0.250000 0.272440
vt 0.098293 0.348293
vt 0.174147 0.272440
vt 0.174147 0.348293
vt 0.612578 0.293867
vt 0.681289 0.293867
vt 0.681289 0.362578
vt 0.612578 0.706133
vt 0.543867 0.706133
vt 0.022440 0.651707
vt 0.098293 0.651707
vt 0.098293 0.727560
vt 0.022440 0.727560
vt 0.098293 0.651707
vt 0.174146 0.651707
vt 0.174146 0.727560
vt 0.098293 0.727560
vt 0.681289 0.637422
vt 0.681289 0.706133
vt 0.612578 0.706133
vt 0.612578 0.431289
vt 0.543867 0.431289
vt 0.543867 0.362578
vt 0.612578 0.362578
vt 0.098293 0.424147
vt 0.022440 0.424147
vt 0.022440 0.348293
vt 0.250000 0.348293
vt 0.325853 0.424147
vt 0.250000 0.424147
vt 0.818711 0.431289
vt 0.750000 0.431289
vt 0.681289 0.568711
vt 0.174147 0.575854
vt 0.174147 0.651707
vt 0.401707 0.424147
vt 0.887422 0.431289
vt 0.750000 0.500000
vt 0.818711 0.431289
vt 0.818711 0.500000
vt 0.250000 0.500000
vt 0.250000 0.424147
vt 0.325853 0.424147
vt 0.325853 0.500000
vt 0.174147 0.424147
vt 0.174147 0.348293
vt 0.681289 0.431289
vt 0.750000 0.637422
vt 0.750000 0.706133
vt 0.681289 0.706133
vt 0.174146 0.651707
vt 0.250000 0.651707
vt 0.250000 0.727560
vt 0.174146 0.727560
vt 0.250000 0.651707
vt 0.325853 0.651707
vt 0.325853 0.727560
vt 0.250000 0.727560
vt 0.818711 0.637422
vt 0.818711 0.706133
vt 0.750000 0.706133
vt 0.681289 0.293867
vt 0.750000 0.293867
vt 0.750000 0.362578
vt 0.250000 0.348293
vt 0.098293 0.500000
vt 0.098293 0.575853
vt 0.022440 0.575853
vt 0.022440 0.500000
vt 0.612578 0.500000
vt 0.612578 0.568711
vt 0.543867 0.568711
vt 0.543867 0.500000
vt 0.681289 0.568711
vt 0.750000 0.568711
vt 0.750000 0.637422
vt 0.681289 0.637422
vt 0.174147 0.575854
vt 0.250000 0.575854
vt 0.250000 0.651707
vt 0.174147 0.651707
vt 0.401707 0.424147
vt 0.401707 0.500000
vt 0.887422 0.431289
vt 0.887422 0.500000
vt 0.681289 0.500000
vt 0.098293 0.500000
vt 0.174147 0.500000
vt 0.174147 0.424147
vt 0.681289 0.431289
vt 0.818711 0.637422
vt 0.887422 0.637422
vt 0.887422 0.706133
vt 0.818711 0.706133
vt 0.325853 0.651707
vt 0.401707 0.651707
vt 0.401707 0.727560
vt 0.325853 0.727560
vt 0.401707 0.348293
vt 0.477560 0.272440
vt 0.477560 0.348293
vt 0.887422 0.362578
vt 0.956133 0.293867
vt 0.956133 0.362578
vt 0.612578 0.500000
vt 0.543867 0.431289
vt 0.612578 0.431289
vt 0.022440 0.500000
vt 0.022440 0.424147
vt 0.098293 0.424147
vt 0.250000 0.500000
vt 0.250000 0.575853
vt 0.174147 0.575853
vt 0.174147 0.500000
vt 0.750000 0.500000
vt 0.750000 0.568711
vt 0.681289 0.568711
vt 0.818711 0.568711
vt 0.325853 0.575854
vt 0.325853 0.651707
vt 0.325853 0.575853
vt 0.325853 0.500000
vt 0.401707 0.575853
vt 0.818711 0.568711
vt 0.818711 0.500000
vt 0.887422 0.568711
vt 0.818711 0.500000
vt 0.250000 0.500000
vt 0.325853 0.500000
vt 0.325853 0.575854
vt 0.174147 0.424147
vt 0.681289 0.500000
vt 0.681289 0.431289
vt 0.887422 0.431289
vt 0.956133 0.431289
vt 0.401707 0.424146
vt 0.477560 0.348293
vt 0.477560 0.424146
s 1
f 1/1/1 6/2/2 5/3/3 3/4/4
f 6/2/2 7/5/5 8/6/6 5/3/3
f 25/5/7 12/7/8 9/8/9 14/6/10
f 14/7/10 9/9/9 10/10/11 17/8/12
f 17/9/12 10/11/11 11/12/13 21/10/14
f 21/11/14 11/13/13 12/14/8 25/12/7
f 3/13/4 5/15/3 8/16/6 4/14/15
f 2/15/16 7/17/5 6/18/2 1/16/1
f 4/17/15 8/19/6 7/20/5 2/18/16
f 4/19/15 26/21/17 13/22/18 3/20/4
f 2/21/16 22/23/19 26/24/17 4/22/15
f 1/23/1 18/25/20 22/26/19 2/24/16
f 9/25/9 12/27/8 11/28/13 10/26/11
f 14/27/10 17/29/12 19/30/21 16/28/22
f 16/29/22 19/31/21 20/32/23 15/30/24
f 15/31/24 20/33/23 18/34/20 13/32/18
f 17/33/12 21/35/14 23/36/25 19/34/21
f 19/35/21 23/37/25 24/38/26 20/36/23
f 20/37/23 24/39/26 22/40/19 18/38/20
f 21/39/14 25/41/7 27/42/27 23/40/25
f 23/41/25 27/43/27 28/44/28 24/42/26
f 24/45/26 28/46/28 26/47/17 22/48/19
f 25/46/7 14/49/10 16/50/22 27/47/27
f 27/49/27 16/51/22 15/52/24 28/50/28
f 28/51/28 15/53/24 13/54/18 26/52/17
f 3/53/4 13/55/18 18/56/20 1/54/1
f 29/57/29 30/58/29 33/59/29 32/60/29
f 30/61/29 31/62/29 34/63/29 33/64/29
f 32/65/29 33/66/29 36/67/29 35/68/29
f 33/69/29 34/70/29 37/71/29 36/72/29
f 38/73/29 39/74/29 42/75/29 41/76/29
f 39/77/29 40/78/29 43/79/29 42/80/29
f 41/81/29 42/82/29 45/83/29 44/84/29
f 42/85/29 43/86/29 46/87/29 45/88/29
f 47/89/29 48/90/29 51/91/29 50/92/29
f 48/93/29 49/94/29 52/95/29 51/96/29
f 50/97/29 51/98/29 54/94/29 53/93/29
f 51/99/29 52/100/29 55/90/29 54/89/29
f 56/101/29 57/72/29 60/102/29 59/103/29
f 57/65/29 58/104/29 61/105/29 60/106/29
f 59/84/29 60/83/29 63/107/29 62/108/29
f 60/109/29 61/110/29 64/111/29 63/112/29
f 65/113/29 66/114/29 69/115/29 68/116/29
f 66/83/29 67/117/29 70/118/29 69/119/29
f 68/120/29 69/121/29 72/122/29 71/123/29
f 69/124/29 70/125/29 73/126/29 72/69/29
f 74/127/29 75/89/29 78/128/29 77/129/29
f 75/97/29 76/93/29 79/130/29 78/131/29
f 77/82/29 78/132/29 81/117/29 80/83/29
f 78/86/29 79/133/29 82/134/29 81/87/29
f 83/128/29 84/89/29 87/92/29 86/135/29
f 84/130/29 85/93/29 88/96/29 87/136/29
f 86/137/29 87/131/29 90/138/29 89/139/29
f 87/140/29 88/141/29 91/142/29 90/143/29
f 92/144/29 93/124/29 96/69/29 95/145/29
f 93/146/29 94/120/29 97/123/29 96/106/29
f 95/117/29 96/147/29 99/148/29 98/149/29
f 96/150/29 97/151/29 100/152/29 99/153/29
f 101/154/29 102/155/29 105/156/29 104/157/29
f 102/147/29 103/158/29 106/159/29 105/160/29
f 104/106/29 105/161/29 108/162/29 107/163/29
f 105/145/29 106/102/29 109/100/29 108/164/29
f 110/165/29 111/166/29 114/167/29 113/168/29
f 111/169/29 112/170/29 115/171/29 114/172/29
f 113/173/29 114/174/29 117/175/29 116/176/29
f 114/177/29 115/178/29 118/179/29 117/180/29
f 119/143/29 120/142/29 123/181/29 122/182/29
f 120/139/29 121/138/29 124/183/29 123/184/29
f 122/169/29 123/185/29 126/173/29 125/82/29
f 123/186/29 124/187/29 127/177/29 126/86/29
f 128/188/29 129/145/29 132/164/29 131/129/29
f 129/189/29 130/106/29 133/163/29 132/131/29
f 131/190/29 132/191/29 135/192/29 134/193/29
f 132/194/29 133/195/29 136/196/29 135/197/29
f 137/198/29 138/91/29 141/199/29 140/200/29
f 138/201/29 139/95/29 142/202/29 141/203/29
f 140/204/29 141/172/29 144/205/29 143/206/29
f 141/165/29 142/207/29 145/208/29 144/209/29
f 146/210/29 147/211/29 150/212/29 149/213/29
f 147/214/29 148/215/29 151/216/29 150/79/29
f 149/174/29 150/217/29 153/64/29 152/175/29
f 150/178/29 151/218/29 154/219/29 153/179/29
f 155/220/29 156/221/29 159/182/29 158/222/29
f 156/223/29 157/224/29 160/184/29 159/225/29
f 158/214/29 159/226/29 162/217/29 161/174/29
f 159/227/29 160/228/29 163/229/29 162/178/29
f 164/75/29 165/165/29 168/209/29 167/230/29
f 165/231/29 166/169/29 169/206/29 168/232/29
f 167/233/29 168/201/29 171/203/29 170/234/29
f 168/235/29 169/198/29 172/236/29 171/237/29
