# Blender 3.6.0
# www.blender.org
o Chessboard_Surround
v -24.000000 0.000000 23.999998
v 24.000000 0.000000 23.999998
v -24.000000 0.000000 -23.999998
v 24.000000 0.000000 -23.999998
v -24.000000 -1.000000 -23.999998
v -24.000000 -1.000000 23.999998
v 24.000000 -1.000000 23.999998
v 24.000000 -1.000000 -23.999998
v -31.199999 -3.000000 -31.199997
v -31.199999 -3.000000 31.199997
v 31.199999 -3.000000 31.199997
v 31.199999 -3.000000 -31.199997
v -29.699999 0.000000 -29.699997
v -31.199999 -1.500000 -31.199997
v -29.933876 -0.726459 -29.933874
v -30.473541 -1.266122 -30.473539
v -31.199999 -1.500000 31.199997
v -29.699999 0.000000 29.699997
v -30.473541 -1.266122 30.473539
v -29.933876 -0.726459 29.933874
v 31.199999 -1.500000 31.199997
v 29.699999 0.000000 29.699997
v 30.473541 -1.266122 30.473539
v 29.933876 -0.726459 29.933874
v 31.199999 -1.500000 -31.199997
v 29.699999 0.000000 -29.699997
v 30.473541 -1.266122 -30.473539
v 29.933876 -0.726459 -29.933874
v -24.000000 0.000000 23.999998
v -18.000000 0.000000 23.999998
v -12.000000 0.000000 23.999998
v -24.000000 0.000000 17.999998
v -18.000000 0.000000 17.999998
v -12.000000 0.000000 17.999998
v -24.000000 0.000000 11.999999
v -18.000000 0.000000 11.999999
v -12.000000 0.000000 11.999999
v -24.000000 0.000000 11.999999
v -18.000000 0.000000 11.999999
v -12.000000 0.000000 11.999999
v -24.000000 0.000000 6.000000
v -18.000000 0.000000 6.000000
v -12.000000 0.000000 6.000000
v -24.000000 0.000000 0.000000
v -18.000000 0.000000 0.000000
v -12.000000 0.000000 0.000000
v -24.000000 0.000000 0.000000
v -18.000000 0.000000 0.000000
v -12.000000 0.000000 0.000000
v -24.000000 0.000000 -6.000000
v -18.000000 0.000000 -6.000000
v -12.000000 0.000000 -6.000000
v -24.000000 0.000000 -11.999999
v -18.000000 0.000000 -11.999999
v -12.000000 0.000000 -11.999999
v -24.000000 0.000000 -11.999999
v -18.000000 0.000000 -11.999999
v -12.000000 0.000000 -11.999999
v -24.000000 0.000000 -17.999998
v -18.000000 0.000000 -17.999998
v -12.000000 0.000000 -17.999998
v -24.000000 0.000000 -23.999998
v -18.000000 0.000000 -23.999998
v -12.000000 0.000000 -23.999998
v -12.000000 0.000000 23.999998
v -6.000000 0.000000 23.999998
v 0.000000 0.000000 23.999998
v -12.000000 0.000000 17.999998
v -6.000000 0.000000 17.999998
v 0.000000 0.000000 17.999998
v -12.000000 0.000000 11.999999
v -6.000000 0.000000 11.999999
v 0.000000 0.000000 11.999999
v -12.000000 0.000000 11.999999
v -6.000000 0.000000 11.999999
v 0.000000 0.000000 11.999999
v -12.000000 0.000000 6.000000
v -6.000000 0.000000 6.000000
v 0.000000 0.000000 6.000000
v -12.000000 0.000000 0.000000
v -6.000000 0.000000 0.000000
v 0.000000 0.000000 0.000000
v -12.000000 0.000000 0.000000
v -6.000000 0.000000 0.000000
v 0.000000 0.000000 0.000000
v -12.000000 0.000000 -6.000000
v -6.000000 0.000000 -6.000000
v 0.000000 0.000000 -6.000000
v -12.000000 0.000000 -11.999999
v -6.000000 0.000000 -11.999999
v 0.000000 0.000000 -11.999999
v -12.000000 0.000000 -11.999999
v -6.000000 0.000000 -11.999999
v 0.000000 0.000000 -11.999999
v -12.000000 0.000000 -17.999998
v -6.000000 0.000000 -17.999998
v 0.000000 0.000000 -17.999998
v -12.000000 0.000000 -23.999998
v -6.000000 0.000000 -23.999998
v 0.000000 0.000000 -23.999998
v 0.000000 0.000000 23.999998
v 6.000000 0.000000 23.999998
v 12.000000 0.000000 23.999998
v 0.000000 0.000000 17.999998
v 6.000000 0.000000 17.999998
v 12.000000 0.000000 17.999998
v 0.000000 0.000000 11.999999
v 6.000000 0.000000 11.999999
v 12.000000 0.000000 11.999999
v 0.000000 0.000000 11.999999
v 6.000000 0.000000 11.999999
v 12.000000 0.000000 11.999999
v 0.000000 0.000000 6.000000
v 6.000000 0.000000 6.000000
v 12.000000 0.000000 6.000000
v 0.000000 0.000000 0.000000
v 6.000000 0.000000 0.000000
v 12.000000 0.000000 0.000000
v 0.000000 0.000000 0.000000
v 6.000000 0.000000 0.000000
v 12.000000 0.000000 0.000000
v 0.000000 0.000000 -6.000000
v 6.000000 0.000000 -6.000000
v 12.000000 0.000000 -6.000000
v 0.000000 0.000000 -11.999999
v 6.000000 0.000000 -11.999999
v 12.000000 0.000000 -11.999999
v 0.000000 0.000000 -11.999999
v 6.000000 0.000000 -11.999999
v 12.000000 0.000000 -11.999999
v 0.000000 0.000000 -17.999998
v 6.000000 0.000000 -17.999998
v 12.000000 0.000000 -17.999998
v 0.000000 0.000000 -23.999998
v 6.000000 0.000000 -23.999998
v 12.000000 0.000000 -23.999998
v 12.000000 0.000000 23.999998
v 18.000000 0.000000 23.999998
v 24.000000 0.000000 23.999998
v 12.000000 0.000000 17.999998
v 18.000000 0.000000 17.999998
v 24.000000 0.000000 17.999998
v 12.000000 0.000000 11.999999
v 18.000000 0.000000 11.999999
v 24.000000 0.000000 11.999999
v 12.000000 0.000000 11.999999
v 18.000000 0.000000 11.999999
v 24.000000 0.000000 11.999999
v 12.000000 0.000000 6.000000
v 18.000000 0.000000 6.000000
v 24.000000 0.000000 6.000000
v 12.000000 0.000000 0.000000
v 18.000000 0.000000 0.000000
v 24.000000 0.000000 0.000000
v 12.000000 0.000000 0.000000
v 18.000000 0.000000 0.000000
v 24.000000 0.000000 0.000000
v 12.000000 0.000000 -6.000000
v 18.000000 0.000000 -6.000000
v 24.000000 0.000000 -6.000000
v 12.000000 0.000000 -11.999999
v 18.000000 0.000000 -11.999999
v 24.000000 0.000000 -11.999999
v 12.000000 0.000000 -11.999999
v 18.000000 0.000000 -11.999999
v 24.000000 0.000000 -11.999999
v 12.000000 0.000000 -17.999998
v 18.000000 0.000000 -17.999998
v 24.000000 0.000000 -17.999998
v 12.000000 0.000000 -23.999998
v 18.000000 0.000000 -23.999998
v 24.000000 0.000000 -23.999998
vn 0.3015 0.9045 -0.3015
vn 0.5774 0.5774 -0.5774
vn 0.5774 0.5774 0.5774
vn 0.3015 0.9045 0.3015
vn -0.5774 0.5774 -0.5774
vn -0.5774 0.5774 0.5774
vn 0.6065 0.5142 -0.6065
vn 0.5774 -0.5774 -0.5774
vn -0.5774 -0.5774 -0.5774
vn -0.6065 0.5142 -0.6065
vn -0.5774 -0.5774 0.5774
vn -0.6065 0.5142 0.6065
vn 0.5774 -0.5774 0.5774
vn 0.6065 0.5142 0.6065
vn -0.3015 0.9045 0.3015
vn -0.3015 0.9045 -0.3015
vn 0.4804 0.7337 -0.4804
vn -0.4804 0.7337 -0.4804
vn 0.4804 0.7337 0.4804
vn -0.4804 0.7337 0.4804
vn -0.2273 0.9469 0.2273
vn -0.2273 0.9469 -0.2273
vn -0.5018 0.7045 0.5018
vn -0.5018 0.7045 -0.5018
vn 0.2273 0.9469 0.2273
vn 0.5018 0.7045 0.5018
vn 0.2273 0.9469 -0.2273
vn 0.5018 0.7045 -0.5018
vn -0.0000 1.0000 -0.0000
vt 0.000000 0.977823
vt 0.022177 0.977823
vt 0.022177 1.000000
vt 0.000000 1.000000
vt 0.044355 0.977823
vt 0.044355 1.000000
vt 0.066532 0.977823
vt 0.066532 1.000000
vt 0.088710 0.977823
vt 0.088710 1.000000
vt 0.110887 0.977823
vt 0.110887 1.000000
vt 0.133065 0.977823
vt 0.133065 1.000000
vt 0.155242 0.977823
vt 0.155242 1.000000
vt 0.177420 0.977823
vt 0.177420 1.000000
vt 0.199597 0.977823
vt 0.199597 1.000000
vt 0.221775 0.977823
vt 0.221775 1.000000
vt 0.243952 0.977823
vt 0.243952 1.000000
vt 0.266130 0.977823
vt 0.266130 1.000000
vt 0.288307 0.977823
vt 0.288307 1.000000
vt 0.310484 0.977823
vt 0.310484 1.000000
vt 0.332662 0.977823
vt 0.332662 1.000000
vt 0.354839 0.977823
vt 0.354839 1.000000
vt 0.377017 0.977823
vt 0.377017 1.000000
vt 0.399194 0.977823
vt 0.399194 1.000000
vt 0.421372 0.977823
vt 0.421372 1.000000
vt 0.443549 0.977823
vt 0.443549 1.000000
vt 0.465727 0.977823
vt 0.465727 1.000000
vt 0.487904 0.977823
vt 0.487904 1.000000
vt 0.510082 0.977823
vt 0.510082 1.000000
vt 0.532259 0.977823
vt 0.532259 1.000000
vt 0.554437 0.977823
vt 0.554437 1.000000
vt 0.576614 0.977823
vt 0.576614 1.000000
vt 0.488911 0.488911
vt 0.488911 0.611139
vt 0.366683 0.611139
vt 0.366683 0.488911
vt 0.488911 0.733367
vt 0.366683 0.733367
vt 0.244456 0.611139
vt 0.244456 0.488911
vt 0.244456 0.733367
vt 0.488911 0.000000
vt 0.611139 0.000000
vt 0.611139 0.122228
vt 0.488911 0.122228
vt 0.733367 0.000000
vt 0.733367 0.122228
vt 0.611139 0.244456
vt 0.488911 0.244456
vt 0.733367 0.244456
vt 0.977823 -0.000000
vt 0.977823 0.122228
vt 0.855595 0.122228
vt 0.855595 0.000000
vt 0.977823 0.244456
vt 0.855595 0.244456
vt 0.733367 0.122228
vt 0.733367 0.000000
vt 0.733367 0.244456
vt 0.000000 0.733367
vt 0.122228 0.733367
vt 0.122228 0.855595
vt 0.000000 0.855595
vt 0.244456 0.733367
vt 0.244456 0.855595
vt 0.122228 0.977823
vt 0.244456 0.977823
vt 0.000000 0.244456
vt 0.000000 0.122228
vt 0.122228 0.122228
vt 0.122228 0.244456
vt 0.000000 0.000000
vt 0.122228 0.000000
vt 0.244456 0.122228
vt 0.244456 0.244456
vt 0.244456 -0.000000
vt 0.733367 0.488911
vt 0.611139 0.488911
vt 0.611139 0.366683
vt 0.733367 0.366683
vt 0.488911 0.488911
vt 0.488911 0.366683
vt 0.611139 0.244456
vt 0.733367 0.244456
vt 0.488911 0.244456
vt 0.977823 0.488911
vt 0.855595 0.488911
vt 0.855595 0.366683
vt 0.977823 0.366683
vt 0.733367 0.488911
vt 0.733367 0.366683
vt 0.855595 0.244456
vt 0.977823 0.244456
vt 0.733367 0.244456
vt 0.733367 0.733367
vt 0.611139 0.733367
vt 0.611139 0.611139
vt 0.733367 0.611139
vt 0.488911 0.733367
vt 0.488911 0.611139
vt 0.611139 0.488911
vt 0.733367 0.488911
vt 0.488911 0.488911
vt 0.488911 0.244456
vt 0.488911 0.366683
vt 0.366683 0.366683
vt 0.366683 0.244456
vt 0.488911 0.488911
vt 0.366683 0.488911
vt 0.244456 0.366683
vt 0.244456 0.244456
vt 0.244456 0.488911
vt 0.244456 0.488911
vt 0.244456 0.611139
vt 0.122228 0.611139
vt 0.122228 0.488911
vt 0.244456 0.733367
vt 0.122228 0.733367
vt 0.000000 0.611139
vt -0.000000 0.488911
vt 0.000000 0.733367
vt 0.244456 0.244456
vt 0.244456 0.122228
vt 0.366683 0.122228
vt 0.366684 0.244456
vt 0.244456 0.000000
vt 0.366683 0.000000
vt 0.488911 0.122228
vt 0.488911 -0.000000
vt -0.000000 0.244456
vt 0.122228 0.244456
vt 0.122228 0.366683
vt 0.000000 0.366684
vt 0.244456 0.244456
vt 0.244456 0.366683
vt 0.122228 0.488911
vt 0.000000 0.488911
vt 0.244456 0.488911
vt 0.366683 0.733367
vt 0.366683 0.855595
vt 0.488911 0.733367
vt 0.488911 0.855595
vt 0.366683 0.977823
vt 0.488911 0.977823
vt 0.733367 0.977822
vt 0.733367 0.855595
vt 0.855595 0.855595
vt 0.855595 0.977822
vt 0.733367 0.733367
vt 0.855595 0.733367
vt 0.977823 0.855595
vt 0.977823 0.977822
vt 0.977823 0.733367
vt 0.977823 0.733367
vt 0.855595 0.733367
vt 0.855595 0.611139
vt 0.977823 0.611139
vt 0.733367 0.733367
vt 0.733367 0.611139
vt 0.855595 0.488911
vt 0.977823 0.488911
vt 0.733367 0.488911
vt 0.488911 0.977823
vt 0.611139 0.855595
vt 0.611139 0.977823
vt 0.488911 0.733367
vt 0.611139 0.733367
vt 0.733367 0.855595
vt 0.733367 0.977823
vt 0.733367 0.733367
s 1
f 1/1/1 6/2/2 5/3/3 3/4/4
f 6/2/2 7/5/5 8/6/6 5/3/3
f 25/5/7 12/7/8 9/8/9 14/6/10
f 14/7/10 9/9/9 10/10/11 17/8/12
f 17/9/12 10/11/11 11/12/13 21/10/14
f 21/11/14 11/13/13 12/14/8 25/12/7
f 3/13/4 5/15/3 8/16/6 4/14/15
f 2/15/16 7/17/5 6/18/2 1/16/1
f 4/17/15 8/19/6 7/20/5 2/18/16
f 4/19/15 26/21/17 13/22/18 3/20/4
f 2/21/16 22/23/19 26/24/17 4/22/15
f 1/23/1 18/25/20 22/26/19 2/24/16
f 9/25/9 12/27/8 11/28/13 10/26/11
f 14/27/10 17/29/12 19/30/21 16/28/22
f 16/29/22 19/31/21 20/32/23 15/30/24
f 15/31/24 20/33/23 18/34/20 13/32/18
f 17/33/12 21/35/14 23/36/25 19/34/21
f 19/35/21 23/37/25 24/38/26 20/36/23
f 20/37/23 24/39/26 22/40/19 18/38/20
f 21/39/14 25/41/7 27/42/27 23/40/25
f 23/41/25 27/43/27 28/44/28 24/42/26
f 24/43/26 28/45/28 26/46/17 22/44/19
f 25/45/7 14/47/10 16/48/22 27/46/27
f 27/47/27 16/49/22 15/50/24 28/48/28
f 28/49/28 15/51/24 13/52/18 26/50/17
f 3/51/4 13/53/18 18/54/20 1/52/1
f 29/55/29 30/56/29 33/57/29 32/58/29
f 30/56/29 31/59/29 34/60/29 33/57/29
f 32/58/29 33/57/29 36/61/29 35/62/29
f 33/57/29 34/60/29 37/63/29 36/61/29
f 38/64/29 39/65/29 42/66/29 41/67/29
f 39/65/29 40/68/29 43/69/29 42/66/29
f 41/67/29 42/66/29 45/70/29 44/71/29
f 42/66/29 43/69/29 46/72/29 45/70/29
f 47/73/29 48/74/29 51/75/29 50/76/29
f 48/74/29 49/77/29 52/78/29 51/75/29
f 50/76/29 51/75/29 54/79/29 53/80/29
f 51/75/29 52/78/29 55/81/29 54/79/29
f 56/82/29 57/83/29 60/84/29 59/85/29
f 57/83/29 58/86/29 61/87/29 60/84/29
f 59/85/29 60/84/29 63/88/29 62/1/29
f 60/84/29 61/87/29 64/89/29 63/88/29
f 65/90/29 66/91/29 69/92/29 68/93/29
f 66/91/29 67/94/29 70/95/29 69/92/29
f 68/93/29 69/92/29 72/96/29 71/97/29
f 69/92/29 70/95/29 73/98/29 72/96/29
f 74/99/29 75/100/29 78/101/29 77/102/29
f 75/100/29 76/103/29 79/104/29 78/101/29
f 77/102/29 78/101/29 81/105/29 80/106/29
f 78/101/29 79/104/29 82/107/29 81/105/29
f 83/108/29 84/109/29 87/110/29 86/111/29
f 84/109/29 85/112/29 88/113/29 87/110/29
f 86/111/29 87/110/29 90/114/29 89/115/29
f 87/110/29 88/113/29 91/116/29 90/114/29
f 92/117/29 93/118/29 96/119/29 95/120/29
f 93/118/29 94/121/29 97/122/29 96/119/29
f 95/120/29 96/119/29 99/123/29 98/124/29
f 96/119/29 97/122/29 100/125/29 99/123/29
f 101/126/29 102/127/29 105/128/29 104/129/29
f 102/127/29 103/130/29 106/131/29 105/128/29
f 104/129/29 105/128/29 108/132/29 107/133/29
f 105/128/29 106/131/29 109/134/29 108/132/29
f 110/135/29 111/136/29 114/137/29 113/138/29
f 111/136/29 112/139/29 115/140/29 114/137/29
f 113/138/29 114/137/29 117/141/29 116/142/29
f 114/137/29 115/140/29 118/143/29 117/141/29
f 119/144/29 120/145/29 123/146/29 122/147/29
f 120/145/29 121/148/29 124/149/29 123/146/29
f 122/147/29 123/146/29 126/150/29 125/71/29
f 123/146/29 124/149/29 127/151/29 126/150/29
f 128/152/29 129/153/29 132/154/29 131/155/29
f 129/153/29 130/156/29 133/157/29 132/154/29
f 131/155/29 132/154/29 135/158/29 134/159/29
f 132/154/29 133/157/29 136/160/29 135/158/29
f 137/86/29 138/161/29 141/162/29 140/87/29
f 138/161/29 139/163/29 142/164/29 141/162/29
f 140/87/29 141/162/29 144/165/29 143/89/29
f 141/162/29 142/164/29 145/166/29 144/165/29
f 146/167/29 147/168/29 150/169/29 149/170/29
f 147/168/29 148/171/29 151/172/29 150/169/29
f 149/170/29 150/169/29 153/173/29 152/174/29
f 150/169/29 151/172/29 154/175/29 153/173/29
f 155/176/29 156/177/29 159/178/29 158/179/29
f 156/177/29 157/180/29 160/181/29 159/178/29
f 158/179/29 159/178/29 162/182/29 161/183/29
f 159/178/29 160/181/29 163/184/29 162/182/29
f 164/185/29 165/164/29 168/186/29 167/187/29
f 165/164/29 166/188/29 169/189/29 168/186/29
f 167/187/29 168/186/29 171/190/29 170/191/29
f 168/186/29 169/189/29 172/192/29 171/190/29
